<svg xmlns="http://www.w3.org/2000/svg" xmlns:xlink="http://www.w3.org/1999/xlink" xmlns:lucid="lucid" width="1428" height="1083"><g transform="translate(-255 -1222)" lucid:page-tab-id="L8cAQKAF9QxY"><path d="M1204.15 1348.82h293.74v62.36h-293.75z" fill="none"/><use xlink:href="#a" transform="matrix(1,0,0,1,1204.1546866666358,1348.8164374858775) translate(21.333333333333357 36.83333333333333)"/><use xlink:href="#b" transform="matrix(1,0,0,1,1204.1546866666358,1348.8164374858775) translate(139.62962962962962 36.83333333333333)"/><use xlink:href="#c" transform="matrix(1,0,0,1,1204.1546866666358,1348.8164374858775) translate(178.07407407407408 36.83333333333333)"/><use xlink:href="#d" transform="matrix(1,0,0,1,1204.1546866666358,1348.8164374858775) translate(204.66666666666663 36.83333333333333)"/><path d="M366.82 1326c0-3.3 2.7-6 6-6h268c3.32 0 6 2.7 6 6v108c0 3.3-2.68 6-6 6h-268c-3.3 0-6-2.7-6-6z" stroke="#5e5e5e" stroke-width="5" fill="#ffdf71"/><use xlink:href="#e" transform="matrix(1,0,0,1,378.8228238234069,1332) translate(51.33333333333334 36.33333333333333)"/><use xlink:href="#f" transform="matrix(1,0,0,1,378.8228238234069,1332) translate(124.74074074074075 36.33333333333333)"/><use xlink:href="#g" transform="matrix(1,0,0,1,378.8228238234069,1332) translate(51.37037037037038 68.33333333333333)"/><use xlink:href="#h" transform="matrix(1,0,0,1,378.8228238234069,1332) translate(139.44444444444443 68.33333333333333)"/><use xlink:href="#i" transform="matrix(1,0,0,1,378.8228238234069,1332) translate(162.4074074074074 68.33333333333333)"/><path d="M750.7 1326c0-3.3 2.7-6 6-6h268c3.3 0 6 2.7 6 6v108c0 3.3-2.7 6-6 6h-268c-3.3 0-6-2.7-6-6z" stroke="#5e5e5e" stroke-width="5" fill="#ffdf71"/><use xlink:href="#e" transform="matrix(1,0,0,1,762.7,1332) translate(51.33333333333334 36.33333333333333)"/><use xlink:href="#f" transform="matrix(1,0,0,1,762.7,1332) translate(124.74074074074075 36.33333333333333)"/><use xlink:href="#j" transform="matrix(1,0,0,1,762.7,1332) translate(38.14814814814815 68.33333333333333)"/><use xlink:href="#h" transform="matrix(1,0,0,1,762.7,1332) translate(167.48148148148147 68.33333333333333)"/><use xlink:href="#k" transform="matrix(1,0,0,1,762.7,1332) translate(190.44444444444443 68.33333333333333)"/><path d="M330 1546c0-3.3 2.7-6 6-6h318c3.3 0 6 2.7 6 6v488c0 3.3-2.7 6-6 6H336c-3.3 0-6-2.7-6-6z" stroke="#5e5e5e" stroke-width="6" fill="#e5e5e5"/><use xlink:href="#l" transform="matrix(1,0,0,1,335,1545) translate(144.4814814814815 21.333333333333332)"/><path d="M506.82 1445.5v64.53" stroke="#000" stroke-width="6" fill="none"/><path d="M509.82 1445.58h-6v-3.08h6"/><path d="M506.82 1527.3l-4.63-14.27h9.26z" stroke="#000" stroke-width="6"/><path d="M341.8 1586c0-3.3 2.67-6 6-6h294.4c3.33 0 6 2.7 6 6v108c0 3.3-2.67 6-6 6H347.8c-3.33 0-6-2.7-6-6z" stroke="#5e5e5e" stroke-width="5" fill="#ffdf71"/><use xlink:href="#m" transform="matrix(1,0,0,1,353.7857142857143,1592) translate(50.574074074074076 21.333333333333332)"/><use xlink:href="#n" transform="matrix(1,0,0,1,353.7857142857143,1592) translate(185.16666666666666 21.333333333333332)"/><use xlink:href="#o" transform="matrix(1,0,0,1,353.7857142857143,1592) translate(92.75925925925927 53.33333333333333)"/><use xlink:href="#p" transform="matrix(1,0,0,1,353.7857142857143,1592) translate(95.27777777777779 85.33333333333333)"/><use xlink:href="#h" transform="matrix(1,0,0,1,353.7857142857143,1592) translate(149.94444444444446 85.33333333333333)"/><use xlink:href="#q" transform="matrix(1,0,0,1,353.7857142857143,1592) translate(172.9074074074074 85.33333333333333)"/><path d="M341.8 1726c0-3.3 2.67-6 6-6h294.4c3.33 0 6 2.7 6 6v140c0 3.3-2.67 6-6 6H347.8c-3.33 0-6-2.7-6-6z" stroke="#5e5e5e" stroke-width="5" fill="#ffdf71"/><use xlink:href="#e" transform="matrix(1,0,0,1,353.7857142857143,1732) translate(21.351851851851848 53.33333333333333)"/><use xlink:href="#r" transform="matrix(1,0,0,1,353.7857142857143,1732) translate(94.75925925925925 53.33333333333333)"/><use xlink:href="#s" transform="matrix(1,0,0,1,353.7857142857143,1732) translate(152.38888888888889 53.33333333333333)"/><use xlink:href="#t" transform="matrix(1,0,0,1,353.7857142857143,1732) translate(28.018518518518533 85.33333333333333)"/><use xlink:href="#u" transform="matrix(1,0,0,1,353.7857142857143,1732) translate(112.31481481481482 85.33333333333333)"/><use xlink:href="#v" transform="matrix(1,0,0,1,353.7857142857143,1732) translate(161.72222222222223 85.33333333333333)"/><path d="M720.7 1546c0-3.3 2.7-6 6-6h328c3.3 0 6 2.7 6 6v488c0 3.3-2.7 6-6 6h-328c-3.3 0-6-2.7-6-6z" stroke="#5e5e5e" stroke-width="6" fill="#e5e5e5"/><use xlink:href="#l" transform="matrix(1,0,0,1,725.7,1545) translate(149.4814814814815 21.333333333333332)"/><path d="M732.84 1586c0-3.3 2.7-6 6-6h303.72c3.3 0 6 2.7 6 6v108c0 3.3-2.7 6-6 6H738.84c-3.3 0-6-2.7-6-6z" stroke="#5e5e5e" stroke-width="5" fill="#ffdf71"/><use xlink:href="#m" transform="matrix(1,0,0,1,744.8428571428572,1592) translate(2.6296296296296475 36.33333333333333)"/><use xlink:href="#w" transform="matrix(1,0,0,1,744.8428571428572,1592) translate(137.22222222222223 36.33333333333333)"/><use xlink:href="#o" transform="matrix(1,0,0,1,744.8428571428572,1592) translate(191.88888888888889 36.33333333333333)"/><use xlink:href="#p" transform="matrix(1,0,0,1,744.8428571428572,1592) translate(99.77777777777779 68.33333333333333)"/><use xlink:href="#h" transform="matrix(1,0,0,1,744.8428571428572,1592) translate(154.44444444444446 68.33333333333333)"/><use xlink:href="#q" transform="matrix(1,0,0,1,744.8428571428572,1592) translate(177.4074074074074 68.33333333333333)"/><path d="M732.84 1726c0-3.3 2.7-6 6-6h303.72c3.3 0 6 2.7 6 6v140c0 3.3-2.7 6-6 6H738.84c-3.3 0-6-2.7-6-6z" stroke="#5e5e5e" stroke-width="5" fill="#ffdf71"/><use xlink:href="#e" transform="matrix(1,0,0,1,744.8428571428572,1732) translate(25.851851851851848 53.33333333333333)"/><use xlink:href="#r" transform="matrix(1,0,0,1,744.8428571428572,1732) translate(99.25925925925925 53.33333333333333)"/><use xlink:href="#s" transform="matrix(1,0,0,1,744.8428571428572,1732) translate(156.88888888888889 53.33333333333333)"/><use xlink:href="#t" transform="matrix(1,0,0,1,744.8428571428572,1732) translate(16.296296296296305 85.33333333333333)"/><use xlink:href="#x" transform="matrix(1,0,0,1,744.8428571428572,1732) translate(100.5925925925926 85.33333333333333)"/><use xlink:href="#y" transform="matrix(1,0,0,1,744.8428571428572,1732) translate(141.1851851851852 85.33333333333333)"/><path d="M341.8 1906c0-3.3 2.67-6 6-6h294.4c3.33 0 6 2.7 6 6v108c0 3.3-2.67 6-6 6H347.8c-3.33 0-6-2.7-6-6z" stroke="#5e5e5e" stroke-width="5" fill="#ffdf71"/><use xlink:href="#z" transform="matrix(1,0,0,1,353.7857142857143,1912) translate(65.35185185185186 54.33333333333333)"/><use xlink:href="#A" transform="matrix(1,0,0,1,353.7857142857143,1912) translate(80.16666666666667 54.33333333333333)"/><use xlink:href="#B" transform="matrix(1,0,0,1,353.7857142857143,1912) translate(186.6111111111111 54.33333333333333)"/><path d="M732.84 1898c0-3.3 2.7-6 6-6h303.72c3.3 0 6 2.7 6 6v108c0 3.3-2.7 6-6 6H738.84c-3.3 0-6-2.7-6-6z" stroke="#5e5e5e" stroke-width="5" fill="#ef8d22"/><g><use xlink:href="#C" transform="matrix(1,0,0,1,744.8428571428572,1904) translate(77.25925925925927 54.33333333333333)"/><use xlink:href="#D" transform="matrix(1,0,0,1,744.8428571428572,1904) translate(183.7037037037037 54.33333333333333)"/></g><path d="M793.67 1957.18l34.18 30.82c-8.88-12.46-18.75-24.55-29.4-36.07 10.65-11.52 20.52-23.62 29.4-35.93l-34.18 30.82c-8.56-9.15-17.9-17.8-27.54-26.14-4.78-1.87-10.1-2.66-15.43-2.45l37.1 33.63-37.1 33.62c5.32.36 10.65-.36 15.43-2.45 9.87-8.13 18.98-16.77 27.54-25.85z" fill="red"/><path d="M890.7 1445.5v64.53" stroke="#000" stroke-width="6" fill="none"/><path d="M893.7 1445.58h-6v-3.08h6"/><path d="M890.7 1527.3l-4.64-14.27h9.28z" stroke="#000" stroke-width="6"/><path d="M1297.9 1546c0-3.3 2.67-6 6-6h328c3.3 0 6 2.7 6 6v488c0 3.3-2.7 6-6 6h-328c-3.33 0-6-2.7-6-6z" stroke="#5e5e5e" stroke-width="6" fill="#e5e5e5"/><g><use xlink:href="#l" transform="matrix(1,0,0,1,1302.8857137142859,1545) translate(149.4814814814815 21.333333333333332)"/></g><path d="M1310.03 1586c0-3.3 2.68-6 6-6h303.7c3.33 0 6 2.7 6 6v108c0 3.3-2.67 6-6 6h-303.7c-3.32 0-6-2.7-6-6z" stroke="#5e5e5e" stroke-width="5" fill="#ffdf71"/><g><use xlink:href="#m" transform="matrix(1,0,0,1,1322.028570857143,1592) translate(2.6296296296296475 36.33333333333333)"/><use xlink:href="#w" transform="matrix(1,0,0,1,1322.028570857143,1592) translate(137.22222222222223 36.33333333333333)"/><use xlink:href="#o" transform="matrix(1,0,0,1,1322.028570857143,1592) translate(191.88888888888889 36.33333333333333)"/><use xlink:href="#p" transform="matrix(1,0,0,1,1322.028570857143,1592) translate(99.77777777777779 68.33333333333333)"/><use xlink:href="#h" transform="matrix(1,0,0,1,1322.028570857143,1592) translate(154.44444444444446 68.33333333333333)"/><use xlink:href="#E" transform="matrix(1,0,0,1,1322.028570857143,1592) translate(177.4074074074074 68.33333333333333)"/></g><path d="M1310.03 1726c0-3.3 2.68-6 6-6h303.7c3.33 0 6 2.7 6 6v140c0 3.3-2.67 6-6 6h-303.7c-3.32 0-6-2.7-6-6z" stroke="#5e5e5e" stroke-width="5" fill="#ffdf71"/><g><use xlink:href="#e" transform="matrix(1,0,0,1,1322.028570857143,1732) translate(25.851851851851848 53.33333333333333)"/><use xlink:href="#r" transform="matrix(1,0,0,1,1322.028570857143,1732) translate(99.25925925925925 53.33333333333333)"/><use xlink:href="#s" transform="matrix(1,0,0,1,1322.028570857143,1732) translate(156.88888888888889 53.33333333333333)"/><use xlink:href="#F" transform="matrix(1,0,0,1,1322.028570857143,1732) translate(25.111111111111114 85.33333333333333)"/><use xlink:href="#h" transform="matrix(1,0,0,1,1322.028570857143,1732) translate(109.4074074074074 85.33333333333333)"/><use xlink:href="#y" transform="matrix(1,0,0,1,1322.028570857143,1732) translate(132.37037037037038 85.33333333333333)"/></g><path d="M1310.03 1898c0-3.3 2.68-6 6-6h303.7c3.33 0 6 2.7 6 6v108c0 3.3-2.67 6-6 6h-303.7c-3.32 0-6-2.7-6-6z" stroke="#5e5e5e" stroke-width="5" fill="#ffdf71"/><g><use xlink:href="#C" transform="matrix(1,0,0,1,1322.028570857143,1904) translate(77.25925925925927 54.33333333333333)"/><use xlink:href="#D" transform="matrix(1,0,0,1,1322.028570857143,1904) translate(183.7037037037037 54.33333333333333)"/></g><path d="M1054.06 1952H1164c3.3 0 6-2.7 6-6v-520c0-3.3 2.7-6 6-6h285.9c3.3 0 6 2.7 6 6v84.03" stroke="#000" stroke-width="6" fill="none"/><path d="M1054.13 1955h-3.07v-6h3.07"/><path d="M1467.9 1527.3l-4.65-14.27h9.27z" stroke="#000" stroke-width="6"/><path d="M392.46 1986l45.75-48.4-10.15-3.6-39.97 42.43-22.2-7.9-5.88 6.2 31.83 11.27.16-.2.46.2z" stroke="#000" stroke-opacity="0" fill="#92d050"/><path d="M1121.4 1900h160v240h-160z" fill="none"/><g><use xlink:href="#G" transform="matrix(1,0,0,1,1121.4,1900) translate(0 93.33333333333333)"/><use xlink:href="#H" transform="matrix(1,0,0,1,1121.4,1900) translate(0 125.33333333333333)"/><use xlink:href="#I" transform="matrix(1,0,0,1,1121.4,1900) translate(0 157.33333333333334)"/></g><path d="M333.57 2126c0-3.3 2.7-6 6-6H654c3.3 0 6 2.7 6 6v128c0 3.3-2.7 6-6 6H339.57c-3.3 0-6-2.7-6-6z" stroke="#5e5e5e" stroke-width="5" fill="#ffdf71"/><g><use xlink:href="#z" transform="matrix(1,0,0,1,345.5714285714285,2132) translate(1.1296296296296475 46.70833333333333)"/><use xlink:href="#J" transform="matrix(1,0,0,1,345.5714285714285,2132) translate(15.94444444444446 46.70833333333333)"/><use xlink:href="#K" transform="matrix(1,0,0,1,345.5714285714285,2132) translate(89.35185185185186 46.70833333333333)"/><use xlink:href="#L" transform="matrix(1,0,0,1,345.5714285714285,2132) translate(127.20370370370371 46.70833333333333)"/><use xlink:href="#t" transform="matrix(1,0,0,1,345.5714285714285,2132) translate(83.05555555555556 78.70833333333333)"/><use xlink:href="#h" transform="matrix(1,0,0,1,345.5714285714285,2132) translate(167.35185185185185 78.70833333333333)"/><use xlink:href="#M" transform="matrix(1,0,0,1,345.5714285714285,2132) translate(190.3148148148148 78.70833333333333)"/></g><path d="M1304.67 2126c0-3.3 2.7-6 6-6h314.43c3.3 0 6 2.7 6 6v128c0 3.3-2.7 6-6 6h-314.43c-3.3 0-6-2.7-6-6z" stroke="#5e5e5e" stroke-width="5" fill="#ffdf71"/><g><use xlink:href="#z" transform="matrix(1,0,0,1,1316.671428,2132) translate(1.1296296296296475 46.70833333333333)"/><use xlink:href="#J" transform="matrix(1,0,0,1,1316.671428,2132) translate(15.94444444444446 46.70833333333333)"/><use xlink:href="#K" transform="matrix(1,0,0,1,1316.671428,2132) translate(89.35185185185186 46.70833333333333)"/><use xlink:href="#L" transform="matrix(1,0,0,1,1316.671428,2132) translate(127.20370370370371 46.70833333333333)"/><use xlink:href="#F" transform="matrix(1,0,0,1,1316.671428,2132) translate(90.46296296296296 78.70833333333333)"/><use xlink:href="#h" transform="matrix(1,0,0,1,1316.671428,2132) translate(174.75925925925924 78.70833333333333)"/><use xlink:href="#N" transform="matrix(1,0,0,1,1316.671428,2132) translate(197.72222222222223 78.70833333333333)"/></g><path d="M496.8 2046v44.53" stroke="#000" stroke-width="6" fill="none"/><path d="M499.8 2046.08h-6V2043h6"/><path d="M496.8 2107.8l-4.65-14.27h9.27z" stroke="#000" stroke-width="6"/><path d="M1467.9 2046v44.53" stroke="#000" stroke-width="6" fill="none"/><path d="M1470.9 2046.08h-6V2043h6"/><path d="M1467.9 2107.8l-4.65-14.27h9.27z" stroke="#000" stroke-width="6"/><defs><path fill="#333" d="M240-174c0 40-23 61-54 70L253 0h-59l-57-94H76V0H24v-248c93 4 217-23 216 74zM76-134c48-2 112 12 112-38 0-48-66-32-112-35v73" id="O"/><path fill="#333" d="M110-194c64 0 96 36 96 99 0 64-35 99-97 99-61 0-95-36-95-99 0-62 34-99 96-99zm-1 164c35 0 45-28 45-65 0-40-10-65-43-65-34 0-45 26-45 65 0 36 10 65 43 65" id="P"/><path fill="#333" d="M25 0v-261h50V0H25" id="Q"/><path fill="#333" d="M135-194c52 0 70 43 70 98 0 56-19 99-73 100-30 1-46-15-58-35L72 0H24l1-261h50v104c11-23 29-37 60-37zM114-30c31 0 40-27 40-66 0-37-7-63-39-63s-41 28-41 65c0 36 8 64 40 64" id="R"/><path fill="#333" d="M133-34C117-15 103 5 69 4 32 3 11-16 11-54c-1-60 55-63 116-61 1-26-3-47-28-47-18 1-26 9-28 27l-52-2c7-38 36-58 82-57s74 22 75 68l1 82c-1 14 12 18 25 15v27c-30 8-71 5-69-32zm-48 3c29 0 43-24 42-57-32 0-66-3-65 30 0 17 8 27 23 27" id="S"/><path fill="#333" d="M190-63c-7 42-38 67-86 67-59 0-84-38-90-98-12-110 154-137 174-36l-49 2c-2-19-15-32-35-32-30 0-35 28-38 64-6 74 65 87 74 30" id="T"/><path fill="#333" d="M147 0L96-86 75-71V0H25v-261h50v150l67-79h53l-66 74L201 0h-54" id="U"/><g id="a"><use transform="matrix(0.07407407407407407,0,0,0.07407407407407407,0,0)" xlink:href="#O"/><use transform="matrix(0.07407407407407407,0,0,0.07407407407407407,19.185185185185183,0)" xlink:href="#P"/><use transform="matrix(0.07407407407407407,0,0,0.07407407407407407,35.407407407407405,0)" xlink:href="#Q"/><use transform="matrix(0.07407407407407407,0,0,0.07407407407407407,42.81481481481481,0)" xlink:href="#Q"/><use transform="matrix(0.07407407407407407,0,0,0.07407407407407407,50.222222222222214,0)" xlink:href="#R"/><use transform="matrix(0.07407407407407407,0,0,0.07407407407407407,66.44444444444443,0)" xlink:href="#S"/><use transform="matrix(0.07407407407407407,0,0,0.07407407407407407,81.25925925925924,0)" xlink:href="#T"/><use transform="matrix(0.07407407407407407,0,0,0.07407407407407407,96.07407407407405,0)" xlink:href="#U"/></g><path fill="#333" d="M136-208V0H84v-208H4v-40h212v40h-80" id="V"/><path fill="#333" d="M144 0l-44-69L55 0H2l70-98-66-92h53l41 62 40-62h54l-67 91 71 99h-54" id="W"/><g id="b"><use transform="matrix(0.07407407407407407,0,0,0.07407407407407407,0,0)" xlink:href="#V"/><use transform="matrix(0.07407407407407407,0,0,0.07407407407407407,16.22222222222222,0)" xlink:href="#W"/></g><path fill="#333" d="M168-19C124 19 11 11 16-68c3-43 29-60 59-75-25-44-12-111 53-106 37 3 64 15 64 52 0 43-40 52-69 68 12 22 27 41 43 59 14-19 21-38 28-64l37 13c-8 29-19 52-34 74 12 10 32 16 52 10v35c-28 11-65-2-81-17zm-58-139c19-9 43-14 43-39 0-14-10-22-25-22-34 0-33 41-18 61zM60-68c-3 40 55 47 79 25-18-20-34-42-48-67-18 8-30 20-31 42" id="X"/><use transform="matrix(0.07407407407407407,0,0,0.07407407407407407,0,0)" xlink:href="#X" id="c"/><path fill="#333" d="M185-48c-13 30-37 53-82 52C43 2 14-33 14-96s30-98 90-98c62 0 83 45 84 108H66c0 31 8 55 39 56 18 0 30-7 34-22zm-45-69c5-46-57-63-70-21-2 6-4 13-4 21h74" id="Y"/><path fill="#333" d="M115-3C79 11 28 4 28-45v-112H4v-33h27l15-45h31v45h36v33H77v99c-1 23 16 31 38 25v30" id="Z"/><path fill="#333" d="M135-150c-39-12-60 13-60 57V0H25l-1-190h47c2 13-1 29 3 40 6-28 27-53 61-41v41" id="aa"/><path fill="#333" d="M123 10C108 53 80 86 19 72V37c35 8 53-11 59-39L3-190h52l48 148c12-52 28-100 44-148h51" id="ab"/><g id="d"><use transform="matrix(0.07407407407407407,0,0,0.07407407407407407,0,0)" xlink:href="#O"/><use transform="matrix(0.07407407407407407,0,0,0.07407407407407407,19.185185185185183,0)" xlink:href="#Y"/><use transform="matrix(0.07407407407407407,0,0,0.07407407407407407,34,0)" xlink:href="#Z"/><use transform="matrix(0.07407407407407407,0,0,0.07407407407407407,42.814814814814824,0)" xlink:href="#aa"/><use transform="matrix(0.07407407407407407,0,0,0.07407407407407407,53.18518518518519,0)" xlink:href="#ab"/></g><path fill="#333" d="M275 0h-61l-44-196L126 0H64L0-248h53L97-49l45-199h58l43 199 44-199h52" id="ac"/><path fill="#333" d="M25-224v-37h50v37H25zM25 0v-190h50V0H25" id="ad"/><g id="e"><use transform="matrix(0.07407407407407407,0,0,0.07407407407407407,0,0)" xlink:href="#ac"/><use transform="matrix(0.07407407407407407,0,0,0.07407407407407407,24.59259259259259,0)" xlink:href="#aa"/><use transform="matrix(0.07407407407407407,0,0,0.07407407407407407,34.96296296296296,0)" xlink:href="#ad"/><use transform="matrix(0.07407407407407407,0,0,0.07407407407407407,42.37037037037037,0)" xlink:href="#Z"/><use transform="matrix(0.07407407407407407,0,0,0.07407407407407407,51.18518518518518,0)" xlink:href="#Y"/></g><path fill="#333" d="M220-157c-53 9-28 100-34 157h-49v-107c1-27-5-49-29-50C55-147 81-57 75 0H25l-1-190h47c2 12-1 28 3 38 10-53 101-56 108 0 13-22 24-43 59-42 82 1 51 116 57 194h-49v-107c-1-25-5-48-29-50" id="ae"/><g id="f"><use transform="matrix(0.07407407407407407,0,0,0.07407407407407407,0,0)" xlink:href="#ae"/><use transform="matrix(0.07407407407407407,0,0,0.07407407407407407,23.703703703703702,0)" xlink:href="#Y"/><use transform="matrix(0.07407407407407407,0,0,0.07407407407407407,38.51851851851852,0)" xlink:href="#Z"/><use transform="matrix(0.07407407407407407,0,0,0.07407407407407407,47.333333333333336,0)" xlink:href="#aa"/><use transform="matrix(0.07407407407407407,0,0,0.07407407407407407,57.70370370370371,0)" xlink:href="#ad"/><use transform="matrix(0.07407407407407407,0,0,0.07407407407407407,65.11111111111111,0)" xlink:href="#T"/></g><path fill="#333" d="M142-158h-39l-4-90h48zm-75 0H28l-4-90h48" id="af"/><path fill="#333" d="M128 0H69L1-190h53L99-40l48-150h52" id="ag"/><path fill="#333" d="M137-138c1-29-70-34-71-4 15 46 118 7 119 86 1 83-164 76-172 9l43-7c4 19 20 25 44 25 33 8 57-30 24-41C81-84 22-81 20-136c-2-80 154-74 161-7" id="ah"/><g id="g"><use transform="matrix(0.07407407407407407,0,0,0.07407407407407407,0,0)" xlink:href="#af"/><use transform="matrix(0.07407407407407407,0,0,0.07407407407407407,12.592592592592592,0)" xlink:href="#ag"/><use transform="matrix(0.07407407407407407,0,0,0.07407407407407407,27.407407407407405,0)" xlink:href="#ad"/><use transform="matrix(0.07407407407407407,0,0,0.07407407407407407,34.81481481481481,0)" xlink:href="#ah"/><use transform="matrix(0.07407407407407407,0,0,0.07407407407407407,49.62962962962962,0)" xlink:href="#ad"/><use transform="matrix(0.07407407407407407,0,0,0.07407407407407407,57.037037037037024,0)" xlink:href="#Z"/><use transform="matrix(0.07407407407407407,0,0,0.07407407407407407,65.85185185185183,0)" xlink:href="#ah"/></g><path fill="#333" d="M15-148v-39h180v39H15zm0 97v-39h180v39H15" id="ai"/><use transform="matrix(0.07407407407407407,0,0,0.07407407407407407,0,0)" xlink:href="#ai" id="h"/><path fill="#333" d="M182-182c0 78-84 86-111 141h115V0H12c-6-101 99-100 120-180 1-22-12-31-33-32-23 0-32 14-35 34l-49-3c5-45 32-70 84-70 51 0 83 22 83 69" id="aj"/><path fill="#333" d="M128-127c34 4 56 21 59 58 7 91-148 94-172 28-4-9-6-17-7-26l51-5c1 24 16 35 40 36 23 0 39-12 38-36-1-31-31-36-65-34v-40c32 2 59-3 59-33 0-20-13-33-34-33s-33 13-35 32l-50-3c6-44 37-68 86-68 50 0 83 20 83 66 0 35-22 52-53 58" id="ak"/><g id="i"><use transform="matrix(0.07407407407407407,0,0,0.07407407407407407,0,0)" xlink:href="#aj"/><use transform="matrix(0.07407407407407407,0,0,0.07407407407407407,14.814814814814813,0)" xlink:href="#ak"/><use transform="matrix(0.07407407407407407,0,0,0.07407407407407407,29.629629629629626,0)" xlink:href="#af"/></g><path fill="#333" d="M85 4C-2 5 27-109 22-190h50c7 57-23 150 33 157 60-5 35-97 40-157h50l1 190h-47c-2-12 1-28-3-38-12 25-28 42-61 42" id="al"/><path fill="#333" d="M135-194c87-1 58 113 63 194h-50c-7-57 23-157-34-157-59 0-34 97-39 157H25l-1-190h47c2 12-1 28 3 38 12-26 28-41 61-42" id="am"/><g id="j"><use transform="matrix(0.07407407407407407,0,0,0.07407407407407407,0,0)" xlink:href="#af"/><use transform="matrix(0.07407407407407407,0,0,0.07407407407407407,12.592592592592592,0)" xlink:href="#R"/><use transform="matrix(0.07407407407407407,0,0,0.07407407407407407,28.814814814814813,0)" xlink:href="#P"/><use transform="matrix(0.07407407407407407,0,0,0.07407407407407407,45.03703703703704,0)" xlink:href="#al"/><use transform="matrix(0.07407407407407407,0,0,0.07407407407407407,61.25925925925925,0)" xlink:href="#am"/><use transform="matrix(0.07407407407407407,0,0,0.07407407407407407,77.48148148148148,0)" xlink:href="#T"/><use transform="matrix(0.07407407407407407,0,0,0.07407407407407407,92.29629629629629,0)" xlink:href="#Y"/><use transform="matrix(0.07407407407407407,0,0,0.07407407407407407,107.1111111111111,0)" xlink:href="#ah"/></g><path fill="#333" d="M165-50V0h-47v-50H5v-38l105-160h55v161h33v37h-33zm-47-37l2-116L46-87h72" id="an"/><g id="k"><use transform="matrix(0.07407407407407407,0,0,0.07407407407407407,0,0)" xlink:href="#an"/><use transform="matrix(0.07407407407407407,0,0,0.07407407407407407,14.814814814814813,0)" xlink:href="#af"/></g><g id="l"><use transform="matrix(0.07407407407407407,0,0,0.07407407407407407,0,0)" xlink:href="#V"/><use transform="matrix(0.07407407407407407,0,0,0.07407407407407407,16.22222222222222,0)" xlink:href="#W"/></g><path fill="#333" d="M24 0v-248h52V0H24" id="ao"/><g id="m"><use transform="matrix(0.07407407407407407,0,0,0.07407407407407407,0,0)" xlink:href="#ao"/><use transform="matrix(0.07407407407407407,0,0,0.07407407407407407,7.4074074074074066,0)" xlink:href="#am"/><use transform="matrix(0.07407407407407407,0,0,0.07407407407407407,23.629629629629623,0)" xlink:href="#T"/><use transform="matrix(0.07407407407407407,0,0,0.07407407407407407,38.44444444444444,0)" xlink:href="#aa"/><use transform="matrix(0.07407407407407407,0,0,0.07407407407407407,48.81481481481481,0)" xlink:href="#Y"/><use transform="matrix(0.07407407407407407,0,0,0.07407407407407407,63.62962962962962,0)" xlink:href="#ae"/><use transform="matrix(0.07407407407407407,0,0,0.07407407407407407,87.33333333333331,0)" xlink:href="#Y"/><use transform="matrix(0.07407407407407407,0,0,0.07407407407407407,102.14814814814812,0)" xlink:href="#am"/><use transform="matrix(0.07407407407407407,0,0,0.07407407407407407,118.37037037037035,0)" xlink:href="#Z"/></g><g id="n"><use transform="matrix(0.07407407407407407,0,0,0.07407407407407407,0,0)" xlink:href="#ah"/><use transform="matrix(0.07407407407407407,0,0,0.07407407407407407,14.814814814814813,0)" xlink:href="#Q"/><use transform="matrix(0.07407407407407407,0,0,0.07407407407407407,22.22222222222222,0)" xlink:href="#P"/><use transform="matrix(0.07407407407407407,0,0,0.07407407407407407,38.44444444444444,0)" xlink:href="#Z"/></g><g id="o"><use transform="matrix(0.07407407407407407,0,0,0.07407407407407407,0,0)" xlink:href="#T"/><use transform="matrix(0.07407407407407407,0,0,0.07407407407407407,14.814814814814813,0)" xlink:href="#P"/><use transform="matrix(0.07407407407407407,0,0,0.07407407407407407,31.037037037037035,0)" xlink:href="#al"/><use transform="matrix(0.07407407407407407,0,0,0.07407407407407407,47.259259259259245,0)" xlink:href="#am"/><use transform="matrix(0.07407407407407407,0,0,0.07407407407407407,63.48148148148148,0)" xlink:href="#Z"/><use transform="matrix(0.07407407407407407,0,0,0.07407407407407407,72.29629629629629,0)" xlink:href="#Y"/><use transform="matrix(0.07407407407407407,0,0,0.07407407407407407,87.1111111111111,0)" xlink:href="#aa"/></g><g id="p"><use transform="matrix(0.07407407407407407,0,0,0.07407407407407407,0,0)" xlink:href="#ah"/><use transform="matrix(0.07407407407407407,0,0,0.07407407407407407,14.814814814814813,0)" xlink:href="#Q"/><use transform="matrix(0.07407407407407407,0,0,0.07407407407407407,22.22222222222222,0)" xlink:href="#P"/><use transform="matrix(0.07407407407407407,0,0,0.07407407407407407,38.44444444444444,0)" xlink:href="#Z"/></g><path fill="#333" d="M23 0v-37h61v-169l-59 37v-38l62-41h46v211h57V0H23" id="ap"/><use transform="matrix(0.07407407407407407,0,0,0.07407407407407407,0,0)" xlink:href="#ap" id="q"/><path fill="#333" d="M169-182c-1-43-94-46-97-3 18 66 151 10 154 114 3 95-165 93-204 36-6-8-10-19-12-30l50-8c3 46 112 56 116 5-17-69-150-10-154-114-4-87 153-88 188-35 5 8 8 18 10 28" id="aq"/><g id="r"><use transform="matrix(0.07407407407407407,0,0,0.07407407407407407,0,0)" xlink:href="#aq"/><use transform="matrix(0.07407407407407407,0,0,0.07407407407407407,17.77777777777778,0)" xlink:href="#Q"/><use transform="matrix(0.07407407407407407,0,0,0.07407407407407407,25.185185185185183,0)" xlink:href="#P"/><use transform="matrix(0.07407407407407407,0,0,0.07407407407407407,41.407407407407405,0)" xlink:href="#Z"/></g><path fill="#333" d="M230 0l2-204L168 0h-37L68-204 70 0H24v-248h70l56 185 57-185h69V0h-46" id="ar"/><path fill="#333" d="M135-194c53 0 70 44 70 98 0 56-19 98-73 100-31 1-45-17-59-34 3 33 2 69 2 105H25l-1-265h48c2 10 0 23 3 31 11-24 29-35 60-35zM114-30c33 0 39-31 40-66 0-38-9-64-40-64-56 0-55 130 0 130" id="as"/><path fill="#333" d="M195-6C206 82 75 100 31 46c-4-6-6-13-8-21l49-6c3 16 16 24 34 25 40 0 42-37 40-79-11 22-30 35-61 35-53 0-70-43-70-97 0-56 18-96 73-97 30 0 46 14 59 34l2-30h47zm-90-29c32 0 41-27 41-63 0-35-9-62-40-62-32 0-39 29-40 63 0 36 9 62 39 62" id="at"/><g id="s"><use transform="matrix(0.07407407407407407,0,0,0.07407407407407407,0,0)" xlink:href="#ar"/><use transform="matrix(0.07407407407407407,0,0,0.07407407407407407,22.148148148148145,0)" xlink:href="#S"/><use transform="matrix(0.07407407407407407,0,0,0.07407407407407407,36.96296296296296,0)" xlink:href="#as"/><use transform="matrix(0.07407407407407407,0,0,0.07407407407407407,53.18518518518518,0)" xlink:href="#as"/><use transform="matrix(0.07407407407407407,0,0,0.07407407407407407,69.4074074074074,0)" xlink:href="#ad"/><use transform="matrix(0.07407407407407407,0,0,0.07407407407407407,76.81481481481481,0)" xlink:href="#am"/><use transform="matrix(0.07407407407407407,0,0,0.07407407407407407,93.03703703703704,0)" xlink:href="#at"/></g><path fill="#333" d="M-4 44V30h207v14H-4" id="au"/><g id="t"><use transform="matrix(0.07407407407407407,0,0,0.07407407407407407,0,0)" xlink:href="#ah"/><use transform="matrix(0.07407407407407407,0,0,0.07407407407407407,14.814814814814813,0)" xlink:href="#Q"/><use transform="matrix(0.07407407407407407,0,0,0.07407407407407407,22.22222222222222,0)" xlink:href="#P"/><use transform="matrix(0.07407407407407407,0,0,0.07407407407407407,38.44444444444444,0)" xlink:href="#Z"/><use transform="matrix(0.07407407407407407,0,0,0.07407407407407407,47.25925925925926,0)" xlink:href="#au"/><use transform="matrix(0.07407407407407407,0,0,0.07407407407407407,62.074074074074076,0)" xlink:href="#ap"/></g><path fill="#333" d="M14-72v-43h91v43H14" id="av"/><path fill="#333" d="M15-22v-40l146-57-146-57v-40l181 69v56" id="aw"/><g id="u"><use transform="matrix(0.07407407407407407,0,0,0.07407407407407407,0,0)" xlink:href="#av"/><use transform="matrix(0.07407407407407407,0,0,0.07407407407407407,8.814814814814815,0)" xlink:href="#av"/><use transform="matrix(0.07407407407407407,0,0,0.07407407407407407,17.62962962962963,0)" xlink:href="#av"/><use transform="matrix(0.07407407407407407,0,0,0.07407407407407407,26.444444444444443,0)" xlink:href="#aw"/></g><g id="v"><use transform="matrix(0.07407407407407407,0,0,0.07407407407407407,0,0)" xlink:href="#af"/><use transform="matrix(0.07407407407407407,0,0,0.07407407407407407,12.592592592592592,0)" xlink:href="#ag"/><use transform="matrix(0.07407407407407407,0,0,0.07407407407407407,27.407407407407405,0)" xlink:href="#ad"/><use transform="matrix(0.07407407407407407,0,0,0.07407407407407407,34.81481481481481,0)" xlink:href="#ah"/><use transform="matrix(0.07407407407407407,0,0,0.07407407407407407,49.62962962962962,0)" xlink:href="#ad"/><use transform="matrix(0.07407407407407407,0,0,0.07407407407407407,57.037037037037024,0)" xlink:href="#Z"/><use transform="matrix(0.07407407407407407,0,0,0.07407407407407407,65.85185185185183,0)" xlink:href="#ah"/><use transform="matrix(0.07407407407407407,0,0,0.07407407407407407,80.66666666666664,0)" xlink:href="#af"/></g><g id="w"><use transform="matrix(0.07407407407407407,0,0,0.07407407407407407,0,0)" xlink:href="#ah"/><use transform="matrix(0.07407407407407407,0,0,0.07407407407407407,14.814814814814813,0)" xlink:href="#Q"/><use transform="matrix(0.07407407407407407,0,0,0.07407407407407407,22.22222222222222,0)" xlink:href="#P"/><use transform="matrix(0.07407407407407407,0,0,0.07407407407407407,38.44444444444444,0)" xlink:href="#Z"/></g><g id="x"><use transform="matrix(0.07407407407407407,0,0,0.07407407407407407,0,0)" xlink:href="#av"/><use transform="matrix(0.07407407407407407,0,0,0.07407407407407407,8.814814814814815,0)" xlink:href="#av"/><use transform="matrix(0.07407407407407407,0,0,0.07407407407407407,17.62962962962963,0)" xlink:href="#aw"/></g><g id="y"><use transform="matrix(0.07407407407407407,0,0,0.07407407407407407,0,0)" xlink:href="#af"/><use transform="matrix(0.07407407407407407,0,0,0.07407407407407407,12.592592592592592,0)" xlink:href="#R"/><use transform="matrix(0.07407407407407407,0,0,0.07407407407407407,28.814814814814813,0)" xlink:href="#P"/><use transform="matrix(0.07407407407407407,0,0,0.07407407407407407,45.03703703703704,0)" xlink:href="#al"/><use transform="matrix(0.07407407407407407,0,0,0.07407407407407407,61.25925925925925,0)" xlink:href="#am"/><use transform="matrix(0.07407407407407407,0,0,0.07407407407407407,77.48148148148148,0)" xlink:href="#T"/><use transform="matrix(0.07407407407407407,0,0,0.07407407407407407,92.29629629629629,0)" xlink:href="#Y"/><use transform="matrix(0.07407407407407407,0,0,0.07407407407407407,107.1111111111111,0)" xlink:href="#ah"/><use transform="matrix(0.07407407407407407,0,0,0.07407407407407407,121.9259259259259,0)" xlink:href="#af"/></g><path fill="#333" d="M67-125c0 53 21 87 73 88 37 1 54-22 65-47l45 17C233-25 199 4 140 4 58 4 20-42 15-125 8-235 124-281 211-232c18 10 29 29 36 50l-46 12c-8-25-30-41-62-41-52 0-71 34-72 86" id="ax"/><g id="A"><use transform="matrix(0.07407407407407407,0,0,0.07407407407407407,0,0)" xlink:href="#ax"/><use transform="matrix(0.07407407407407407,0,0,0.07407407407407407,19.185185185185183,0)" xlink:href="#P"/><use transform="matrix(0.07407407407407407,0,0,0.07407407407407407,35.407407407407405,0)" xlink:href="#ae"/><use transform="matrix(0.07407407407407407,0,0,0.07407407407407407,59.11111111111111,0)" xlink:href="#ae"/><use transform="matrix(0.07407407407407407,0,0,0.07407407407407407,82.81481481481481,0)" xlink:href="#ad"/><use transform="matrix(0.07407407407407407,0,0,0.07407407407407407,90.22222222222221,0)" xlink:href="#Z"/></g><g id="B"><use transform="matrix(0.07407407407407407,0,0,0.07407407407407407,0,0)" xlink:href="#V"/><use transform="matrix(0.07407407407407407,0,0,0.07407407407407407,16.22222222222222,0)" xlink:href="#W"/></g><g id="C"><use transform="matrix(0.07407407407407407,0,0,0.07407407407407407,0,0)" xlink:href="#ax"/><use transform="matrix(0.07407407407407407,0,0,0.07407407407407407,19.185185185185183,0)" xlink:href="#P"/><use transform="matrix(0.07407407407407407,0,0,0.07407407407407407,35.407407407407405,0)" xlink:href="#ae"/><use transform="matrix(0.07407407407407407,0,0,0.07407407407407407,59.11111111111111,0)" xlink:href="#ae"/><use transform="matrix(0.07407407407407407,0,0,0.07407407407407407,82.81481481481481,0)" xlink:href="#ad"/><use transform="matrix(0.07407407407407407,0,0,0.07407407407407407,90.22222222222221,0)" xlink:href="#Z"/></g><g id="D"><use transform="matrix(0.07407407407407407,0,0,0.07407407407407407,0,0)" xlink:href="#V"/><use transform="matrix(0.07407407407407407,0,0,0.07407407407407407,16.22222222222222,0)" xlink:href="#W"/></g><use transform="matrix(0.07407407407407407,0,0,0.07407407407407407,0,0)" xlink:href="#aj" id="E"/><g id="F"><use transform="matrix(0.07407407407407407,0,0,0.07407407407407407,0,0)" xlink:href="#ah"/><use transform="matrix(0.07407407407407407,0,0,0.07407407407407407,14.814814814814813,0)" xlink:href="#Q"/><use transform="matrix(0.07407407407407407,0,0,0.07407407407407407,22.22222222222222,0)" xlink:href="#P"/><use transform="matrix(0.07407407407407407,0,0,0.07407407407407407,38.44444444444444,0)" xlink:href="#Z"/><use transform="matrix(0.07407407407407407,0,0,0.07407407407407407,47.25925925925926,0)" xlink:href="#au"/><use transform="matrix(0.07407407407407407,0,0,0.07407407407407407,62.074074074074076,0)" xlink:href="#aj"/></g><path fill="#333" d="M238-95c0 69-44 99-111 99C63 4 22-25 22-93v-155h51v151c-1 38 19 59 55 60 90 1 49-130 58-211h52v153" id="ay"/><path fill="#333" d="M84 4C32 4 15-41 15-95c0-55 18-99 73-99 29 0 47 12 58 34l2-30h48l-1 265h-49V-32C136-9 114 4 84 4zm21-34c32 0 41-29 41-66 0-36-9-64-40-64-33 0-39 30-40 65 0 43 13 65 39 65" id="az"/><g id="G"><use transform="matrix(0.07407407407407407,0,0,0.07407407407407407,0,0)" xlink:href="#ay"/><use transform="matrix(0.07407407407407407,0,0,0.07407407407407407,19.185185185185183,0)" xlink:href="#am"/><use transform="matrix(0.07407407407407407,0,0,0.07407407407407407,35.407407407407405,0)" xlink:href="#ad"/><use transform="matrix(0.07407407407407407,0,0,0.07407407407407407,42.81481481481481,0)" xlink:href="#az"/><use transform="matrix(0.07407407407407407,0,0,0.07407407407407407,59.03703703703703,0)" xlink:href="#al"/><use transform="matrix(0.07407407407407407,0,0,0.07407407407407407,75.25925925925925,0)" xlink:href="#Y"/></g><g id="H"><use transform="matrix(0.07407407407407407,0,0,0.07407407407407407,0,0)" xlink:href="#T"/><use transform="matrix(0.07407407407407407,0,0,0.07407407407407407,14.814814814814813,0)" xlink:href="#P"/><use transform="matrix(0.07407407407407407,0,0,0.07407407407407407,31.037037037037035,0)" xlink:href="#am"/><use transform="matrix(0.07407407407407407,0,0,0.07407407407407407,47.259259259259245,0)" xlink:href="#ah"/><use transform="matrix(0.07407407407407407,0,0,0.07407407407407407,62.07407407407406,0)" xlink:href="#Z"/><use transform="matrix(0.07407407407407407,0,0,0.07407407407407407,70.88888888888887,0)" xlink:href="#aa"/><use transform="matrix(0.07407407407407407,0,0,0.07407407407407407,81.25925925925924,0)" xlink:href="#S"/><use transform="matrix(0.07407407407407407,0,0,0.07407407407407407,96.07407407407405,0)" xlink:href="#ad"/><use transform="matrix(0.07407407407407407,0,0,0.07407407407407407,103.48148148148145,0)" xlink:href="#am"/><use transform="matrix(0.07407407407407407,0,0,0.07407407407407407,119.70370370370367,0)" xlink:href="#Z"/></g><path fill="#333" d="M121-226c-27-7-43 5-38 36h38v33H83V0H34v-157H6v-33h28c-9-59 32-81 87-68v32" id="aA"/><g id="I"><use transform="matrix(0.07407407407407407,0,0,0.07407407407407407,0,0)" xlink:href="#aA"/><use transform="matrix(0.07407407407407407,0,0,0.07407407407407407,8.814814814814815,0)" xlink:href="#S"/><use transform="matrix(0.07407407407407407,0,0,0.07407407407407407,23.629629629629623,0)" xlink:href="#ad"/><use transform="matrix(0.07407407407407407,0,0,0.07407407407407407,31.03703703703703,0)" xlink:href="#Q"/><use transform="matrix(0.07407407407407407,0,0,0.07407407407407407,38.444444444444436,0)" xlink:href="#al"/><use transform="matrix(0.07407407407407407,0,0,0.07407407407407407,54.66666666666666,0)" xlink:href="#aa"/><use transform="matrix(0.07407407407407407,0,0,0.07407407407407407,65.03703703703702,0)" xlink:href="#Y"/></g><g id="J"><use transform="matrix(0.07407407407407407,0,0,0.07407407407407407,0,0)" xlink:href="#ac"/><use transform="matrix(0.07407407407407407,0,0,0.07407407407407407,24.59259259259259,0)" xlink:href="#aa"/><use transform="matrix(0.07407407407407407,0,0,0.07407407407407407,34.96296296296296,0)" xlink:href="#ad"/><use transform="matrix(0.07407407407407407,0,0,0.07407407407407407,42.37037037037037,0)" xlink:href="#Z"/><use transform="matrix(0.07407407407407407,0,0,0.07407407407407407,51.18518518518518,0)" xlink:href="#Y"/></g><g id="K"><use transform="matrix(0.07407407407407407,0,0,0.07407407407407407,0,0)" xlink:href="#V"/><use transform="matrix(0.07407407407407407,0,0,0.07407407407407407,14.222222222222221,0)" xlink:href="#P"/></g><path fill="#333" d="M24 0v-248h195v40H76v63h132v40H76v65h150V0H24" id="aB"/><path fill="#333" d="M114-157C55-157 80-60 75 0H25v-261h50l-1 109c12-26 28-41 61-42 86-1 58 113 63 194h-50c-7-57 23-157-34-157" id="aC"/><g id="L"><use transform="matrix(0.07407407407407407,0,0,0.07407407407407407,0,0)" xlink:href="#aB"/><use transform="matrix(0.07407407407407407,0,0,0.07407407407407407,17.77777777777778,0)" xlink:href="#Q"/><use transform="matrix(0.07407407407407407,0,0,0.07407407407407407,25.185185185185183,0)" xlink:href="#S"/><use transform="matrix(0.07407407407407407,0,0,0.07407407407407407,40,0)" xlink:href="#ah"/><use transform="matrix(0.07407407407407407,0,0,0.07407407407407407,54.81481481481481,0)" xlink:href="#Z"/><use transform="matrix(0.07407407407407407,0,0,0.07407407407407407,63.629629629629626,0)" xlink:href="#ad"/><use transform="matrix(0.07407407407407407,0,0,0.07407407407407407,71.03703703703704,0)" xlink:href="#T"/><use transform="matrix(0.07407407407407407,0,0,0.07407407407407407,85.85185185185185,0)" xlink:href="#aq"/><use transform="matrix(0.07407407407407407,0,0,0.07407407407407407,103.62962962962962,0)" xlink:href="#Y"/><use transform="matrix(0.07407407407407407,0,0,0.07407407407407407,118.44444444444441,0)" xlink:href="#S"/><use transform="matrix(0.07407407407407407,0,0,0.07407407407407407,133.25925925925924,0)" xlink:href="#aa"/><use transform="matrix(0.07407407407407407,0,0,0.07407407407407407,143.62962962962962,0)" xlink:href="#T"/><use transform="matrix(0.07407407407407407,0,0,0.07407407407407407,158.44444444444443,0)" xlink:href="#aC"/></g><g id="M"><use transform="matrix(0.07407407407407407,0,0,0.07407407407407407,0,0)" xlink:href="#aj"/><use transform="matrix(0.07407407407407407,0,0,0.07407407407407407,14.814814814814813,0)" xlink:href="#ak"/></g><use transform="matrix(0.07407407407407407,0,0,0.07407407407407407,0,0)" xlink:href="#an" id="N"/></defs></g></svg>